<?xml version="1.0" standalone="no"?>
<!DOCTYPE svg PUBLIC "-//W3C//DTD SVG 20010904//EN"
 "http://www.w3.org/TR/2001/REC-SVG-20010904/DTD/svg10.dtd">
<svg version="1.0" xmlns="http://www.w3.org/2000/svg"
 width="1280.000000pt" height="720.000000pt" viewBox="0 0 1280.000000 720.000000"
 preserveAspectRatio="xMidYMid meet">
<metadata>
Created by potrace 1.15, written by Peter Selinger 2001-2017
</metadata>
<g transform="translate(0.000000,720.000000) scale(0.100000,-0.100000)"
fill="#000000" stroke="none">
<path d="M7564 4379 c-49 -25 -66 -30 -99 -24 -153 24 -411 6 -570 -40 -122
-36 -237 -98 -291 -159 -76 -83 -92 -193 -42 -274 25 -40 105 -82 159 -82 109
0 224 97 207 177 -3 14 -8 10 -22 -17 -36 -70 -103 -126 -156 -130 -56 -5 -74
2 -112 40 -40 39 -40 41 -36 99 12 171 212 303 524 347 110 15 327 14 343 -2
3 -2 -13 -23 -35 -47 -97 -102 -148 -179 -279 -416 -124 -226 -172 -299 -239
-364 -160 -153 -386 -170 -386 -28 0 32 6 44 31 65 37 31 54 34 139 20 25 -4
32 -3 24 5 -19 20 -127 34 -172 22 -49 -14 -97 -59 -105 -98 -19 -99 110 -169
266 -145 142 22 264 109 397 283 l59 76 98 6 c155 10 314 60 403 129 59 45
131 124 150 164 27 55 28 129 2 180 -25 49 -115 117 -193 145 -32 12 -59 24
-59 28 0 3 16 17 35 31 34 25 44 40 26 40 -5 0 -35 -14 -67 -31z m84 -115
c242 -118 71 -435 -282 -524 -44 -11 -101 -20 -129 -20 l-49 0 15 24 c9 13 66
111 127 217 61 107 133 227 158 267 44 69 49 73 77 67 17 -3 54 -17 83 -31z"/>
<path d="M5075 4348 c-49 -52 -53 -54 -145 -72 -260 -52 -465 -158 -552 -287
-44 -63 -70 -155 -61 -211 22 -144 196 -185 311 -75 47 44 75 104 74 154 0 48
-7 63 -27 63 -11 0 -12 -6 -6 -22 32 -88 -51 -207 -155 -224 -37 -5 -45 -3
-75 24 -33 29 -34 33 -34 104 1 60 6 83 28 126 67 129 248 248 467 307 52 13
95 23 97 21 2 -2 -13 -32 -33 -66 -20 -34 -75 -142 -121 -239 -258 -536 -305
-618 -440 -761 -158 -168 -318 -250 -487 -250 -170 0 -309 68 -357 175 -42 92
-10 223 76 311 27 28 59 56 70 62 11 6 17 13 13 17 -12 12 -84 -33 -129 -82
-62 -67 -84 -127 -84 -234 0 -78 3 -90 30 -135 35 -57 101 -103 183 -130 89
-29 313 -27 406 4 87 29 196 84 261 130 208 150 315 324 479 777 81 222 125
330 159 389 18 32 30 41 70 51 84 21 128 72 97 111 -25 29 -62 16 -115 -38z"/>
<path d="M7960 4153 c-45 -32 -69 -67 -134 -198 -89 -178 -160 -389 -161 -476
0 -76 11 -96 62 -105 55 -10 107 11 152 63 35 39 41 42 41 24 0 -36 28 -80 57
-87 38 -10 88 21 140 88 25 32 47 58 47 58 1 0 0 -16 -2 -35 -8 -71 18 -115
69 -115 43 0 103 66 168 186 74 136 100 173 133 190 55 29 109 -11 94 -71 -10
-38 -75 -106 -125 -128 -48 -21 -45 -46 3 -27 72 27 95 -6 74 -103 l-13 -59
-90 -28 c-279 -86 -380 -154 -380 -257 0 -38 5 -49 29 -68 37 -30 72 -35 135
-18 120 30 233 114 309 227 28 41 55 90 61 108 9 25 23 38 61 56 33 16 61 39
82 69 l33 45 6 -33 c19 -118 103 -116 196 3 25 32 46 58 47 58 1 0 0 -21 -2
-48 -3 -37 1 -53 18 -75 51 -65 124 -13 218 154 18 31 32 62 32 68 0 26 -18 5
-59 -69 -46 -84 -105 -154 -124 -147 -7 2 -12 26 -11 59 1 46 10 72 53 153 28
54 51 99 51 101 0 2 -18 4 -39 4 -46 0 -52 -6 -126 -136 -64 -112 -125 -176
-163 -172 -24 3 -27 8 -30 42 -9 106 173 339 264 339 14 0 36 -10 48 -23 29
-26 47 -9 21 20 -29 32 -80 44 -133 30 -105 -26 -173 -91 -245 -235 -46 -92
-90 -151 -130 -175 -18 -11 -34 -20 -37 -20 -3 0 -4 29 -2 64 4 55 1 67 -17
85 -12 12 -30 21 -42 21 -17 0 -13 7 26 45 77 76 98 156 49 194 -48 38 -128
20 -177 -38 -14 -18 -47 -71 -73 -119 -71 -131 -130 -217 -159 -230 -21 -10
-27 -9 -32 4 -13 33 9 111 57 202 28 52 50 96 50 98 0 2 -18 4 -39 4 -46 0
-52 -6 -126 -136 -64 -112 -125 -176 -163 -172 -24 3 -27 8 -30 42 -9 106 173
339 264 339 14 0 36 -10 48 -23 29 -26 47 -9 21 20 -29 32 -80 44 -133 30
-110 -27 -176 -94 -251 -252 -51 -107 -105 -168 -149 -168 -38 0 -52 22 -52
83 0 70 24 122 99 209 150 175 258 417 209 466 -17 17 -49 15 -78 -5z m56 -80
c-10 -75 -148 -317 -216 -378 l-21 -19 19 49 c68 171 190 395 214 395 7 0 8
-17 4 -47z m510 -801 c-59 -116 -180 -227 -278 -257 -63 -18 -94 -11 -106 24
-20 57 32 142 113 184 41 21 260 96 283 97 8 0 4 -16 -12 -48z"/>
<path d="M5560 3816 c-94 -25 -172 -99 -221 -211 -28 -63 -80 -146 -110 -174
-14 -13 -34 -21 -49 -19 -23 3 -25 7 -24 48 0 54 81 241 131 307 l33 43 -44 0
c-54 0 -57 -4 -135 -155 -89 -175 -165 -267 -206 -251 -14 5 -17 16 -13 57 6
60 114 287 154 324 l27 25 -49 0 c-27 0 -54 -4 -60 -8 -19 -13 -115 -206 -109
-220 2 -7 -4 -31 -15 -52 -49 -95 -1 -178 86 -150 31 11 92 68 124 119 16 23
16 23 12 -15 -12 -125 96 -150 176 -43 l37 50 6 -33 c20 -117 103 -115 196 4
25 32 46 58 47 58 1 0 0 -21 -2 -48 -6 -88 53 -128 120 -80 l30 21 -11 -21
c-11 -21 -10 -22 27 -22 38 0 40 1 92 90 78 132 182 240 230 240 18 0 11 -32
-21 -83 -83 -135 -78 -247 11 -247 66 0 116 47 184 171 20 36 36 71 36 77 0
27 -17 8 -50 -55 -42 -79 -114 -163 -141 -163 -50 0 -34 73 54 250 34 69 64
128 65 133 7 14 -40 7 -81 -14 -67 -34 -162 -105 -201 -151 -20 -23 -36 -38
-36 -35 0 12 62 120 98 170 l34 47 -39 0 c-51 0 -64 -15 -141 -160 -123 -232
-203 -305 -189 -174 4 38 21 83 56 151 28 53 51 97 51 99 0 2 -18 4 -39 4 -46
0 -52 -6 -126 -136 -64 -112 -125 -176 -163 -172 -24 3 -27 8 -30 42 -9 106
173 339 264 339 14 0 36 -10 48 -23 16 -14 26 -18 31 -10 9 15 -14 41 -52 57
-38 15 -44 15 -103 -1z"/>
</g>
</svg>
